<svg width="70" height="72" viewBox="0 0 70 72" fill="none" xmlns="http://www.w3.org/2000/svg">
<path d="M4 34L66 34" stroke="#EDFFEA" stroke-width="7" stroke-linecap="round"/>
<path d="M4 51H66" stroke="#EDFFEA" stroke-width="7" stroke-linecap="round"/>
<path d="M4 68H66" stroke="#EDFFEA" stroke-width="7" stroke-linecap="round"/>
<path d="M51.3786 4.48276L59.6029 23.6588C60.0275 24.6486 59.3014 25.75 58.2244 25.75H41.7756C40.6986 25.75 39.9725 24.6486 40.3971 23.6588L48.6214 4.48276C49.1411 3.27109 50.8589 3.27109 51.3786 4.48276Z" fill="#EDFFEA" stroke="#EDFFEA"/>
<path d="M21.3786 4.48276L29.6029 23.6588C30.0275 24.6486 29.3014 25.75 28.2244 25.75H11.7756C10.6986 25.75 9.97254 24.6486 10.3971 23.6588L18.6214 4.48276C19.1411 3.27109 20.8589 3.27109 21.3786 4.48276Z" fill="#EDFFEA" stroke="#EDFFEA"/>
</svg>
