<svg width="167" height="155" viewBox="0 0 167 155" fill="none" xmlns="http://www.w3.org/2000/svg">
<path d="M17.0073 48.0668L18.2177 49.9636C17.294 50.5529 16.3747 51.2459 15.6512 51.8895C15.2896 52.2113 15.0002 52.5001 14.7917 52.7387C14.5913 52.9679 14.5287 53.0792 14.5275 53.0786C14.5274 53.0785 14.5282 53.0767 14.5297 53.0732L14.4779 53.1874L14.4122 53.2972C13.9227 54.1154 13.1529 54.8414 12.3748 55.386C11.6028 55.9265 10.6324 56.422 9.58815 56.6465C9.38631 56.7013 9.22763 56.746 9.09621 56.7865C9.09386 56.9054 9.09503 57.0618 9.10382 57.2641C9.13172 57.9063 9.22047 58.779 9.36071 60.0444L9.36169 60.0537C10.0819 66.808 14.7486 76.4803 22.6108 87.437C30.4098 98.3056 41.1461 110.154 53.6001 121.219L53.6028 121.222C60.2268 127.126 67.497 133.285 73.2657 137.964C76.1524 140.305 78.6464 142.261 80.4876 143.625C81.3714 144.28 82.0792 144.779 82.5957 145.115C83.1419 144.781 83.8911 144.29 84.8013 143.666C86.6602 142.393 89.1031 140.631 91.6706 138.7C109.755 125.077 125.351 110.487 136.863 96.8595C148.434 83.1613 155.664 70.6858 157.404 61.2799C157.504 60.7157 157.549 60.3498 157.559 60.1026C157.451 60.051 157.297 59.9843 157.078 59.9003C156.018 59.5145 155.038 58.7707 154.284 58.0143C153.522 57.2503 152.792 56.2752 152.369 55.2337C152.309 55.0935 152.252 54.9628 152.199 54.8407C151.889 54.1259 151.707 53.7042 151.53 53.3843C151.45 53.2385 151.399 53.1683 151.374 53.1389C151.354 53.1296 151.311 53.1115 151.233 53.0879C151.101 53.048 150.902 53.0023 150.592 52.9522C150.058 52.866 149.38 52.7939 148.407 52.6906C148.201 52.6687 147.983 52.6455 147.75 52.6205C147.746 52.6201 147.743 52.6197 147.739 52.6194L143.049 52.1584L141.826 52.0382L141.266 50.9447L137.757 44.0911L137.755 44.0877C133.761 36.2568 128.44 30.6529 122.333 27.6761L122.322 27.6709C116.743 24.9155 109.528 24.6432 102.705 26.5152C95.8836 28.3865 89.7762 32.3127 86.3109 37.544C82.635 43.1159 80.9429 48.9755 80.4925 59.004L80.4919 59.015C79.9571 69.7411 82.0035 77.2352 86.9625 83.7509L86.9641 83.7531C91.3029 89.4686 99.0755 93.5145 105.307 93.5145C110.968 93.5145 115.214 91.6375 117.376 89.3122C118.44 88.1678 118.964 86.9643 119.038 85.8135C119.11 84.6825 118.762 83.3765 117.672 81.9682C117.252 81.445 116.218 80.4328 114.771 79.1656C113.356 77.9278 111.668 76.5506 110.051 75.3347L110.041 75.3272L110.031 75.3196C101.942 69.0947 97.8009 63.7743 97.1562 56.9855L97.1559 56.9822C97.0141 55.4663 96.9687 54.1197 97.1089 53.0891C97.1762 52.5942 97.3129 51.9477 97.664 51.3653C98.0724 50.6878 98.8684 49.9846 100.043 49.9846C100.918 49.9846 101.579 50.3955 101.989 50.7868C102.389 51.1683 102.647 51.614 102.815 51.9943C103.155 52.761 103.309 53.6645 103.309 54.55C103.309 59.5937 106.828 64.9326 115.536 70.938C122.057 75.3629 125.476 79.8429 125.476 85.6692C125.476 89.8926 123.133 93.538 119.726 96.057C116.317 98.5781 111.712 100.094 106.716 100.145L106.704 100.145H106.693C98.0603 100.145 91.4122 97.4082 85.0953 91.371L85.0823 91.3586L85.0695 91.346C72.741 79.1815 69.9123 60.3098 76.9566 40.7357C76.9574 40.7334 76.9582 40.7312 76.959 40.7289L78.6291 36.0092L75.9564 31.6446L75.947 31.6292L75.9378 31.6137C71.9689 24.8923 65.2934 18.0097 58.2721 13.4646L58.2644 13.4596L58.2568 13.4546C56.8649 12.5374 55.5305 11.7113 54.45 11.0781C54.3356 12.1732 54.2392 13.5286 54.1689 15.0068C54.1687 15.0101 54.1686 15.0134 54.1684 15.0167L53.8922 22.1289L53.8036 24.4086L51.5253 24.2884L46.2757 24.0113C46.2731 24.0111 46.2705 24.011 46.2679 24.0109C41.6609 23.8003 38.0741 24.7896 34.9445 27.1582C31.7376 29.5854 28.8121 33.6097 25.8788 39.8544L25.8767 39.8588C23.3286 45.2529 21.5321 47.8587 18.2135 49.9662L17.0073 48.0668ZM17.0073 48.0668C17.3891 47.8244 17.7481 47.5749 18.0899 47.3111L7.26029 55.2567C7.60055 54.8745 8.17353 54.6978 9.06402 54.4574C10.4495 54.1795 11.9273 53.0681 12.4815 52.142C12.9433 51.1232 14.9753 49.3635 17.0073 48.0668ZM80.3101 26.0852L83.222 30.4041L84.6174 29.0438L84.6244 29.037L84.6314 29.0303C89.135 24.715 94.8712 21.7838 102.533 19.8617C110.814 17.702 118.653 18.4221 125.639 21.9556C132.594 25.4738 138.521 31.6876 143.205 40.2152C143.206 40.2178 143.208 40.2203 143.209 40.2229L146.41 45.9372L151.119 46.3801C151.124 46.3804 151.128 46.3808 151.133 46.3811C153.705 46.5926 155.895 46.8902 157.688 47.4177C159.505 47.9523 161.085 48.7722 162.247 50.1439C163.412 51.5204 163.946 53.205 164.148 55.0615C164.346 56.8901 164.238 59.0508 163.98 61.5426L163.98 61.5459C163.565 65.4924 161.442 71.0768 158.523 76.8954C155.567 82.7875 151.665 89.1752 147.474 94.7943L147.468 94.8023C140.228 104.419 124.583 120.469 112.208 130.918C107.776 134.661 100.974 139.991 95.1506 144.379C92.2372 146.575 89.5507 148.548 87.5141 149.978C86.4995 150.69 85.6235 151.284 84.9521 151.706C84.6205 151.914 84.3048 152.102 84.0301 152.246C83.8951 152.316 83.7318 152.396 83.5584 152.464L83.5527 152.466C83.4447 152.509 83.0623 152.658 82.5858 152.658C82.1293 152.658 81.7438 152.538 81.5288 152.462C81.2791 152.374 81.0358 152.261 80.8146 152.149C80.371 151.922 79.8665 151.617 79.3298 151.266C78.2486 150.558 76.8721 149.558 75.2922 148.348C72.1235 145.922 68.0154 142.56 63.5786 138.785C54.709 131.238 44.427 121.954 37.5762 115.038L37.5753 115.037C25.872 103.208 17.1936 92.6689 11.4316 83.1023C5.66965 73.536 2.75 64.8199 2.75 56.6802C2.75 54.9734 2.78436 53.5365 2.89199 52.351C2.99747 51.189 3.18532 50.1062 3.57656 49.1878C3.99977 48.1944 4.6776 47.3601 5.70111 46.8438C6.63436 46.373 7.64068 46.2799 8.50984 46.2799C8.81366 46.2799 9.59341 46.1529 10.6843 45.8214C11.7194 45.5069 12.832 45.0703 13.7476 44.5913L13.7756 44.5766L13.8041 44.5627C15.3971 43.7856 16.1706 43.2624 16.9099 42.3646C17.7401 41.3563 18.6035 39.781 20.0444 36.6584L20.0486 36.6492L20.0529 36.6401C23.0448 30.3066 26.4203 25.5398 30.5331 22.3479C34.6966 19.1165 39.4611 17.619 44.9731 17.5688L44.9834 17.5687H44.9936H48.0084V12.4093C48.0084 9.64867 48.0737 7.62523 48.2905 6.26627C48.3949 5.61197 48.5691 4.85947 48.9511 4.22096C49.4129 3.44919 50.2593 2.75 51.4591 2.75C52.1707 2.75 52.8995 3.00154 53.4077 3.20013C54 3.43164 54.6726 3.74968 55.3836 4.11877C56.8112 4.85985 58.533 5.87962 60.3281 7.03047C63.9073 9.32504 67.9412 12.2459 70.6956 14.7171L70.6973 14.7186C73.5169 17.2534 77.8861 22.3008 80.3101 26.0852ZM151.357 53.1214C151.358 53.1228 151.362 53.1272 151.369 53.1329C151.36 53.1224 151.356 53.1197 151.357 53.1214Z" fill="#EDFFEA" stroke="#EDFFEA" stroke-width="4.5"/>
<path d="M34.8391 53.7672L34.8087 53.7794L34.7779 53.7907C32.0171 54.8057 29.651 53.0819 28.564 51.39C27.4698 49.687 26.8976 46.8173 28.9908 44.7183C29.7066 44.0005 30.6902 43.775 31.2653 43.6885C31.9655 43.5832 32.753 43.5871 33.5281 43.7153C36.1252 44.1244 37.3113 46.5387 37.576 48.2566C37.8412 49.9772 37.4249 52.73 34.8391 53.7672Z" fill="#EDFFEA" stroke="#EDFFEA" stroke-width="4.5"/>
<path d="M124.127 46.1506L124.144 46.1385L124.161 46.1266C125.57 45.1489 127.098 44.4617 128.84 44.4988C130.561 44.5355 132.108 45.2717 133.58 46.3247C134.414 46.9112 135.123 47.5807 135.58 48.323C135.951 48.9269 136.589 50.3678 135.624 51.7227C134.687 53.0375 133.156 52.9584 132.469 52.8362C131.615 52.6842 130.729 52.2793 129.866 51.7226C129.047 51.2045 128.784 51.1586 128.723 51.1529C128.723 51.1529 128.722 51.1528 128.722 51.1528C128.712 51.1518 128.682 51.1487 128.592 51.1735C128.48 51.205 128.293 51.2765 127.981 51.4417C127.172 51.8751 126.348 52.1761 125.561 52.277C124.904 52.3612 123.675 52.3738 122.754 51.4506C121.59 50.2835 121.951 48.8053 122.347 48.055C122.747 47.2966 123.414 46.6656 124.127 46.1506ZM133.258 48.4058C133.265 48.4072 133.265 48.4067 133.257 48.4058L133.258 48.4058ZM131.746 50.6797C131.746 50.6791 131.746 50.6785 131.745 50.6778C131.747 50.682 131.748 50.6826 131.746 50.6797ZM124.976 47.8148C124.976 47.8149 124.977 47.8148 124.981 47.8145C124.977 47.8146 124.976 47.8148 124.976 47.8148Z" fill="#EDFFEA" stroke="#EDFFEA" stroke-width="4.5"/>
</svg>
