<svg width="104" height="97" viewBox="0 0 104 97" fill="none" xmlns="http://www.w3.org/2000/svg">
<path d="M32.0496 14.8567L28.7717 14.6841C28.7702 14.684 28.7687 14.684 28.7672 14.6839C25.8615 14.5514 23.5845 15.1742 21.597 16.6744C19.5667 18.2068 17.7277 20.7373 15.8923 24.6341L15.8911 24.6365C14.3044 27.9861 13.1984 29.5762 11.1655 30.8642C10.5828 31.235 10.0026 31.671 9.54459 32.0774C9.31555 32.2806 9.13011 32.4649 8.99459 32.6195C8.8617 32.7711 8.81505 32.8511 8.80865 32.8621C8.80794 32.8633 8.80772 32.8637 8.80793 32.8632L8.77847 32.928L8.74184 32.9891C8.45049 33.4746 7.98766 33.9119 7.51349 34.2429C7.04262 34.5716 6.4545 34.8699 5.8269 35.0037C5.6222 35.0592 5.49167 35.0983 5.40658 35.127C5.40035 35.2233 5.39926 35.3563 5.4073 35.5409C5.42497 35.9464 5.48098 36.4947 5.56841 37.2814L5.56896 37.2866C6.02277 41.5311 8.9554 47.5786 13.8663 54.4036C18.7418 61.1796 25.4514 68.5637 33.2325 75.458L33.234 75.4593C37.3706 79.1363 41.9104 82.9721 45.5131 85.8859C47.3158 87.3438 48.8745 88.5633 50.0264 89.4144C50.6046 89.8417 51.0648 90.1645 51.3948 90.3759C51.4079 90.3842 51.4206 90.3923 51.433 90.4002C51.4519 90.3889 51.4714 90.3772 51.4916 90.365C51.838 90.1551 52.3175 89.8417 52.9009 89.4433C54.0634 88.6494 55.5898 87.5512 57.1935 86.3485C68.4897 77.862 78.2339 68.772 85.4283 60.2785C92.6558 51.7461 97.1899 43.9554 98.2829 38.061C98.3517 37.6755 98.3804 37.43 98.3838 37.2644C98.3842 37.2441 98.3842 37.2263 98.3839 37.2108C98.3105 37.1704 98.1879 37.1134 97.9826 37.0348C97.3497 36.8053 96.756 36.3584 96.294 35.8963C95.8279 35.4303 95.3859 34.839 95.1315 34.2134C95.0935 34.1262 95.0581 34.0447 95.0249 33.9683C94.832 33.5241 94.7146 33.2537 94.6006 33.0478C94.5411 32.9404 94.5029 32.8898 94.4828 32.8665C94.4682 32.8496 94.4623 32.846 94.4575 32.8431L94.457 32.8428C94.4298 32.8261 94.3164 32.768 93.9045 32.7017C93.5664 32.6473 93.1378 32.6019 92.53 32.5375C92.4018 32.5239 92.2657 32.5095 92.1208 32.494C92.1189 32.4938 92.1171 32.4936 92.1152 32.4934L89.1861 32.2063L88.5076 32.1398L88.1961 31.5332L86.0052 27.2668L86.0043 27.265C83.5008 22.3692 80.1579 18.8524 76.3083 16.9811L76.3025 16.9782C72.7776 15.2421 68.2326 15.0754 63.9459 16.2482C59.66 17.4208 55.8119 19.8836 53.6242 23.1779C51.3104 26.676 50.2503 30.3523 49.9684 36.6109L49.9681 36.6171C49.633 43.3193 50.9153 48.0215 54.0374 52.1124L54.0383 52.1137C56.7715 55.7043 61.6668 58.251 65.6123 58.251C69.1766 58.251 71.8733 57.0727 73.2596 55.5857C73.9432 54.8525 74.2886 54.072 74.3372 53.3159C74.385 52.571 74.1532 51.7227 73.4526 50.8208C73.1813 50.4838 72.5264 49.8454 71.6222 49.056C70.7368 48.283 69.6798 47.4233 68.6674 46.664L68.6674 46.6641L68.6564 46.6557C63.6176 42.7887 61.0745 39.5105 60.678 35.3471L60.6779 35.3453C60.5896 34.4039 60.5627 33.5795 60.6478 32.9554C60.6888 32.6546 60.7707 32.2757 60.9743 31.9389C61.2099 31.549 61.6626 31.1536 62.326 31.1536C62.8205 31.1536 63.1968 31.3851 63.4331 31.6101C63.6636 31.8296 63.8149 32.0885 63.9151 32.3139C64.1169 32.7681 64.2102 33.3092 64.2102 33.8449C64.2102 37.0609 66.4611 40.4238 71.9091 44.1701C75.9622 46.9128 78.0471 49.6621 78.0471 53.2167C78.0471 55.7877 76.617 58.0161 74.5194 59.5629C72.4201 61.1111 69.5784 62.0458 66.4897 62.077V62.077H66.4771C61.1306 62.077 57.0191 60.3902 53.1037 56.6583L53.0965 56.6514L53.0894 56.6444C45.4463 49.1236 43.6779 37.4413 48.0617 25.2944C48.062 25.2933 48.0624 25.2923 48.0628 25.2913L49.1291 22.2862L47.4238 19.509L47.4185 19.5004L47.4134 19.4918C44.9235 15.2865 40.7396 10.9852 36.3379 8.14368L36.3294 8.13811C35.3673 7.50591 34.4488 6.94279 33.7389 6.53414C33.6557 7.25692 33.5862 8.19342 33.5371 9.22311C33.537 9.2249 33.5369 9.22668 33.5368 9.22848L33.3643 13.657L33.315 14.9233L32.0496 14.8567ZM27.9642 10.9747H30.0005V7.61237C30.0005 5.89267 30.0415 4.64428 30.1747 3.8115C30.2391 3.40905 30.3443 2.96352 30.5678 2.59114C30.8358 2.14442 31.3192 1.75004 32 1.75004C32.4121 1.75004 32.8429 1.89632 33.1589 2.01949C33.5216 2.16084 33.936 2.35611 34.3772 2.58452C35.2627 3.04293 36.3332 3.67509 37.4514 4.38998C39.6815 5.8158 42.1921 7.62906 43.903 9.15993L43.904 9.16077C45.6543 10.7301 48.3735 13.8626 49.8789 16.207L51.8016 19.051L52.8065 18.0739L52.8143 18.0665C55.6018 15.4028 59.1564 13.5887 63.9196 12.3971C69.0554 11.0613 73.909 11.5077 78.2322 13.6887C82.5388 15.8613 86.219 19.7034 89.1321 24.9929C89.133 24.9944 89.1338 24.996 89.1347 24.9975L91.1725 28.6258L94.1953 28.9092C94.1979 28.9095 94.2005 28.9097 94.2031 28.9099C95.8062 29.0413 97.1607 29.2255 98.264 29.5493C99.3804 29.8769 100.336 30.3749 101.035 31.1982C101.737 32.0246 102.063 33.0412 102.187 34.1792C102.309 35.3016 102.243 36.634 102.082 38.1827L102.082 38.1845C101.826 40.6132 100.511 44.0694 98.6909 47.6887C96.8498 51.3488 94.4187 55.3176 91.8081 58.8083L91.8047 58.8128C87.2942 64.7877 77.5369 74.7709 69.819 81.2702C67.0556 83.5973 62.812 86.9135 59.1781 89.6444C57.3602 91.0105 55.6848 92.2377 54.4156 93.1265C53.783 93.5694 53.2387 93.9371 52.8229 94.1978C52.6173 94.3267 52.4242 94.4413 52.2582 94.5279C52.1764 94.5705 52.08 94.6174 51.9791 94.6567L51.9765 94.6577C51.9129 94.6825 51.6968 94.7668 51.4294 94.7668C51.171 94.7668 50.9502 94.6989 50.8222 94.6536C50.675 94.6016 50.5297 94.5349 50.3951 94.4665C50.1254 94.3294 49.8158 94.1425 49.4828 93.9253C48.8126 93.4882 47.9569 92.8681 46.9719 92.1159C44.9969 90.6077 42.4348 88.517 39.6663 86.1678C34.1317 81.4713 27.7172 75.6949 23.4451 71.3938L23.4446 71.3933C16.1439 64.0346 10.7358 57.4834 7.1477 51.5423C3.55967 45.6015 1.75 40.2023 1.75 35.171C1.75 34.1096 1.77147 33.2205 1.83802 32.4894C1.90339 31.7713 2.01893 31.1153 2.25407 30.5649C2.50709 29.9726 2.90795 29.4838 3.50843 29.1817C4.05858 28.9049 4.65754 28.8474 5.19085 28.8474C5.40454 28.8474 5.90943 28.7627 6.594 28.5552C7.24766 28.3571 7.95148 28.0819 8.53312 27.7785L8.54869 27.7703L8.56449 27.7626C9.56701 27.2749 10.0727 26.9375 10.5545 26.354C11.0868 25.7093 11.6328 24.7118 12.5315 22.7693L12.5363 22.7591C14.3985 18.828 16.4928 15.8839 19.0338 13.9171C21.6029 11.9287 24.5427 11.0057 27.9528 10.9747H27.9642Z" fill="#66A45A" stroke="#66A45A" stroke-width="2.5"/>
<path d="M21.5683 33.2182L21.5514 33.225L21.5344 33.2312C19.9078 33.8276 18.4988 32.8191 17.8408 31.7977C17.179 30.7705 16.8492 29.0676 18.087 27.8298C18.4974 27.4194 19.0688 27.2851 19.4196 27.2325C19.8399 27.1694 20.3151 27.1716 20.7835 27.2489C22.3073 27.488 23.0216 28.9079 23.1826 29.9497C23.3438 30.993 23.0841 32.6119 21.5683 33.2182Z" fill="#66A45A" stroke="#66A45A" stroke-width="2.5"/>
<path d="M77.45 28.7371L77.4594 28.7303L77.4689 28.7238C78.3341 28.1248 79.2556 27.7157 80.2969 27.7379C81.3264 27.7598 82.2615 28.1992 83.1686 28.8462C83.6793 29.2045 84.1045 29.6074 84.3748 30.0461C84.5978 30.4079 84.9561 31.2314 84.408 31.9987C83.8773 32.7417 83.0054 32.7031 82.5931 32.6299C82.0872 32.5401 81.5535 32.2987 81.0251 31.9585C80.5095 31.6333 80.3188 31.5871 80.2416 31.5799L80.241 31.5799C80.2062 31.5766 80.0902 31.5659 79.6901 31.7774C79.1967 32.0414 78.7006 32.2208 78.2335 32.2805C77.839 32.3309 77.135 32.3332 76.6118 31.8101C75.9519 31.1501 76.1522 30.3098 76.3844 29.8706C76.6189 29.4274 77.014 29.051 77.45 28.7371ZM83.0405 30.1699C83.0405 30.1698 83.0391 30.1696 83.0363 30.1694C83.0392 30.1698 83.0405 30.1699 83.0405 30.1699ZM82.2495 31.3628C82.2495 31.3628 82.2489 31.3616 82.2475 31.3592C82.2487 31.3616 82.2494 31.3628 82.2495 31.3628ZM77.8996 29.8024C77.8981 29.8024 77.8973 29.8024 77.8973 29.8025L77.8996 29.8024Z" fill="#66A45A" stroke="#66A45A" stroke-width="2.5"/>
</svg>
